<mxfile host="app.diagrams.net" modified="2024-06-19T00:09:00.887Z" agent="Mozilla/5.0 (Windows NT 10.0; Win64; x64) AppleWebKit/537.36 (KHTML, like Gecko) Chrome/125.0.0.0 Safari/537.36" etag="jOFZ7F-h7VjdGPJxpSsz" version="24.5.5" type="github">
  <diagram name="Page-1" id="Nw_x7jl9ZZ_PYrK0kHJl">
    <mxGraphModel dx="1290" dy="522" grid="1" gridSize="10" guides="1" tooltips="1" connect="1" arrows="1" fold="1" page="1" pageScale="1" pageWidth="850" pageHeight="1100" math="0" shadow="0">
      <root>
        <mxCell id="0" />
        <mxCell id="1" parent="0" />
        <mxCell id="D7KBIx-YcKPea1t91pvC-1" value="Sign Extend&lt;div&gt;&lt;br&gt;&lt;/div&gt;&lt;div style=&quot;text-align: left;&quot;&gt;out = {16{in[15]}, in}&lt;/div&gt;" style="rounded=0;whiteSpace=wrap;html=1;" vertex="1" parent="1">
          <mxGeometry x="360" y="240" width="120" height="160" as="geometry" />
        </mxCell>
        <mxCell id="D7KBIx-YcKPea1t91pvC-2" value="" style="endArrow=classic;html=1;rounded=0;entryX=0;entryY=0.5;entryDx=0;entryDy=0;" edge="1" parent="1" target="D7KBIx-YcKPea1t91pvC-1">
          <mxGeometry width="50" height="50" relative="1" as="geometry">
            <mxPoint x="220" y="320" as="sourcePoint" />
            <mxPoint x="450" y="250" as="targetPoint" />
          </mxGeometry>
        </mxCell>
        <mxCell id="D7KBIx-YcKPea1t91pvC-3" value="" style="endArrow=classic;html=1;rounded=0;entryX=0;entryY=0.5;entryDx=0;entryDy=0;" edge="1" parent="1">
          <mxGeometry width="50" height="50" relative="1" as="geometry">
            <mxPoint x="480" y="319.5" as="sourcePoint" />
            <mxPoint x="620" y="319.5" as="targetPoint" />
          </mxGeometry>
        </mxCell>
        <mxCell id="D7KBIx-YcKPea1t91pvC-4" value="16" style="text;html=1;align=center;verticalAlign=middle;whiteSpace=wrap;rounded=0;" vertex="1" parent="1">
          <mxGeometry x="260" y="297" width="60" height="30" as="geometry" />
        </mxCell>
        <mxCell id="D7KBIx-YcKPea1t91pvC-5" value="32" style="text;html=1;align=center;verticalAlign=middle;whiteSpace=wrap;rounded=0;" vertex="1" parent="1">
          <mxGeometry x="526" y="297" width="60" height="30" as="geometry" />
        </mxCell>
      </root>
    </mxGraphModel>
  </diagram>
</mxfile>
